<?xml version="1.0" encoding="UTF-8" standalone="no"?>
<svg
   width="512"
   height="512"
   version="1.1"
   id="svg209"
   sodipodi:docname="logo--circle--sita----is-a-hindu-goddess-and-the-f.svg"
   inkscape:version="1.2.2 (732a01da63, 2022-12-09)"
   xmlns:inkscape="http://www.inkscape.org/namespaces/inkscape"
   xmlns:sodipodi="http://sodipodi.sourceforge.net/DTD/sodipodi-0.dtd"
   xmlns="http://www.w3.org/2000/svg"
   xmlns:svg="http://www.w3.org/2000/svg">
  <sodipodi:namedview
     id="namedview211"
     pagecolor="#505050"
     bordercolor="#eeeeee"
     borderopacity="1"
     inkscape:showpageshadow="0"
     inkscape:pageopacity="0"
     inkscape:pagecheckerboard="0"
     inkscape:deskcolor="#505050"
     showgrid="false"
     inkscape:zoom="1.4183568"
     inkscape:cx="126.90742"
     inkscape:cy="310.92318"
     inkscape:window-width="2560"
     inkscape:window-height="1377"
     inkscape:window-x="2552"
     inkscape:window-y="-8"
     inkscape:window-maximized="1"
     inkscape:current-layer="svg209" />
  <defs
     id="defs45">
    <linearGradient
       id="gradient_0"
       gradientUnits="userSpaceOnUse"
       x1="646.83325"
       y1="626.11926"
       x2="640.38416"
       y2="689.58173">
      <stop
         offset="0"
         stop-color="#C4AE59"
         id="stop40" />
      <stop
         offset="1"
         stop-color="#8B90C3"
         id="stop42" />
    </linearGradient>
    <filter
       inkscape:collect="always"
       style="color-interpolation-filters:sRGB"
       id="filter1213"
       x="-0.046333784"
       y="-0.046333784"
       width="1.0926676"
       height="1.0926676">
      <feGaussianBlur
         inkscape:collect="always"
         stdDeviation="9.6199748"
         id="feGaussianBlur1215" />
    </filter>
  </defs>
  <defs
     id="defs152">
    <linearGradient
       id="gradient_1"
       gradientUnits="userSpaceOnUse"
       x1="266.96011"
       y1="498.30945"
       x2="290.09366"
       y2="561.74225">
      <stop
         offset="0"
         stop-color="#14095E"
         id="stop147" />
      <stop
         offset="1"
         stop-color="#42179A"
         id="stop149" />
    </linearGradient>
  </defs>
  <defs
     id="defs161">
    <linearGradient
       id="gradient_2"
       gradientUnits="userSpaceOnUse"
       x1="272.00034"
       y1="374.80182"
       x2="384.98669"
       y2="453.33347">
      <stop
         offset="0"
         stop-color="#210E70"
         id="stop156" />
      <stop
         offset="1"
         stop-color="#541DAD"
         id="stop158" />
    </linearGradient>
  </defs>
  <defs
     id="defs170">
    <linearGradient
       id="gradient_3"
       gradientUnits="userSpaceOnUse"
       x1="381.59906"
       y1="306.30417"
       x2="449.04373"
       y2="374.38223">
      <stop
         offset="0"
         stop-color="#281273"
         id="stop165" />
      <stop
         offset="1"
         stop-color="#6727C2"
         id="stop167" />
    </linearGradient>
  </defs>
  <defs
     id="defs193">
    <linearGradient
       id="gradient_4"
       gradientUnits="userSpaceOnUse"
       x1="498.13123"
       y1="256.92831"
       x2="512.16785"
       y2="235.59753">
      <stop
         offset="0"
         stop-color="#FFFF8C"
         id="stop188" />
      <stop
         offset="1"
         stop-color="#FFFFC2"
         id="stop190" />
    </linearGradient>
  </defs>
  <g
     id="g4453">
    <path
       style="mix-blend-mode:normal;fill:#373068;fill-opacity:1;fill-rule:evenodd;stroke-width:1.22277;filter:url(#filter1213)"
       id="path656"
       sodipodi:type="arc"
       sodipodi:cx="254.51988"
       sodipodi:cy="262.85199"
       sodipodi:rx="249.14801"
       sodipodi:ry="249.14801"
       sodipodi:start="0"
       sodipodi:end="6.1878554"
       sodipodi:open="true"
       sodipodi:arc-type="arc"
       d="M 503.66789,262.85199 A 249.14801,249.14801 0 0 1 260.45713,511.92925 249.14801,249.14801 0 0 1 5.654844,274.72312 249.14801,249.14801 0 0 1 236.72161,14.340516 249.14801,249.14801 0 0 1 502.53665,239.13669"
       transform="matrix(0.94036073,0,0,0.94036073,16.659494,8.8243074)" />
    <path
       fill="#D8A404"
       transform="scale(0.5 0.5)"
       d="M101.007 538.908C103.002 545.142 103.92 551.655 105.512 558C108.547 570.1 112.092 582.138 116.315 593.878C121.239 607.564 127.625 620.766 134.336 633.655C151.624 666.86 173.656 697.396 199.565 724.431C205.905 731.047 212.441 737.937 219.504 743.785C209.699 749.467 201.235 755.378 195.692 765.637C193.652 769.411 192.253 773.652 190.78 777.673C188.247 774.928 186.102 771.583 183.867 768.578L169.83 748.656C139.86 702.961 119.225 652.042 108.202 598.531C104.203 579.117 101.153 558.759 101.007 538.908Z"
       id="path4" />
    <path
       fill="#D8A404"
       transform="scale(0.5 0.5)"
       d="M802.664 742.689L834.137 710.078C850.645 691.403 866.275 670.668 878.802 649.096C885.498 637.566 891.272 625.495 896.695 613.322C902.363 600.601 907.484 587.951 911.472 574.589C916.273 558.505 919.285 542.054 922.937 525.704C922.719 547.016 919.828 568.411 915.958 589.342C907.819 633.373 894.161 676.631 872.445 715.94C865.286 728.897 857.73 741.684 849.403 753.927L832.021 778.318C829.388 769.985 825.611 761.79 819.547 755.402C814.6 750.19 808.728 746.43 802.664 742.689Z"
       id="path6" />
    <path
       fill="white"
       transform="scale(0.5 0.5)"
       d="M351.987 824.537C353.408 827.957 353.946 831.811 354.97 835.379L361.546 855.578C370.248 879.788 381.602 901.895 396.521 922.832C404.274 933.712 413.111 944.542 423.412 953.145L397.401 946.255C372.768 938.893 348.503 929.956 325.47 918.462C310.505 910.994 296.342 902.287 282.338 893.175C268.68 884.288 253.971 874.239 242.711 862.392C253.528 859.494 265.575 856.872 275.75 852.262L278.361 851.461L332.634 831.746L351.987 824.537Z"
       id="path8" />
    <path
       fill="white"
       transform="scale(0.5 0.5)"
       d="M669.029 825.015L690.312 832.44L750.289 848.928L759.719 851.055L786.925 857.881C781.959 863.101 775.989 867.71 770.483 872.353C731.366 905.335 684.614 927.893 636.02 943.161C625.295 946.53 614.046 950.146 602.913 951.866C612.166 942.608 621.043 933.169 628.812 922.595C649.429 894.532 663.992 859.43 669.029 825.015Z"
       id="path10" />
    <path
       fill="white"
       transform="scale(0.5 0.5)"
       d="M491.279 106.447C491.393 102.704 493.757 97.351 494.866 93.6175L511.528 40.3735L531.542 105.938L544.343 154.611L549.074 178.344L559.115 254.8L538.493 249.682L538.35 249.481C534.57 244.874 531.532 239.494 528.295 234.481L511.749 209.049L511.053 210.011L496.715 233.389C493.631 238.452 490.45 245.455 486.385 249.673L464.477 254.3C463.598 250.319 464.817 244.26 465.201 240.095C467.098 219.537 469.714 198.911 473.835 178.672L478.796 155.293L491.279 106.447Z"
       id="path12" />
    <path
       fill="#FFF000"
       transform="scale(0.5 0.5)"
       d="M626.284 800.362C626.978 797.6 627.594 792.475 630.032 790.746C630.51 790.407 630.483 790.43 631.046 790.599C632.272 790.967 632.956 791.701 633.475 792.857C634.613 795.389 634.167 803.021 633.027 805.32L641.213 810.892L655.176 819.152C652.121 835.901 646.792 852.189 639.749 867.67C625.688 898.574 604.701 924.834 578.06 945.75C572.216 950.338 565.15 956.201 558.033 958.658C541.883 964.235 480.074 965.623 465.235 957.978C455.057 952.734 445.525 944.886 436.965 937.325C409.737 913.271 390.738 883.744 377.096 850.231L366.193 819.216L380.464 811.007L390.239 804.142C389.264 801.586 388.519 795.982 389.75 793.505C390.404 792.189 390.912 791.878 392.25 791.377L392.72 791.611C394.798 793.035 395.665 797.074 396.398 799.391C409.746 832.151 435.953 864.116 469.109 878.033C495.312 889.03 526.305 890.155 552.75 879.282C583.836 866.502 611.082 837.878 623.971 807.001C624.882 804.819 625.754 802.673 626.284 800.362Z"
       id="path14" />
    <path
       fill="white"
       transform="scale(0.5 0.5)"
       d="M390.239 804.142C393.451 813.775 396.715 823.369 401.063 832.56C409.445 850.277 420.922 868.69 433.654 883.618C438.62 889.441 444.165 894.815 449.604 900.191C464.215 914.632 480.826 927.767 499.247 936.995L512.482 942.944C519.019 940.343 525.087 936.914 531.207 933.474C572.226 910.421 606.015 871.031 624.669 827.932L633.027 805.32L641.213 810.892C628.514 862.294 592.618 908.909 548.855 938.053C541.658 942.846 534.056 946.975 526.347 950.873C521.75 953.197 516.917 955.219 512.576 958.005L511.994 958.384C502.764 953.479 493.567 948.946 484.632 943.476C471.213 935.261 458.1 926.046 446.396 915.513C427.321 898.345 409.579 875.627 397.789 852.873C390.771 839.327 385.553 825.344 380.464 811.007L390.239 804.142Z"
       id="path16" />
    <path
       fill="#FFF000"
       transform="scale(0.5 0.5)"
       d="M626.284 800.362C626.978 797.6 627.594 792.475 630.032 790.746C630.51 790.407 630.483 790.43 631.046 790.599C632.272 790.967 632.956 791.701 633.475 792.857C634.613 795.389 634.167 803.021 633.027 805.32L624.669 827.932C606.015 871.031 572.226 910.421 531.207 933.474C525.087 936.914 519.019 940.343 512.482 942.944L499.247 936.995C480.826 927.767 464.215 914.632 449.604 900.191C444.165 894.815 438.62 889.441 433.654 883.618C420.922 868.69 409.445 850.277 401.063 832.56C396.715 823.369 393.451 813.775 390.239 804.142C389.264 801.586 388.519 795.982 389.75 793.505C390.404 792.189 390.912 791.878 392.25 791.377L392.72 791.611C394.798 793.035 395.665 797.074 396.398 799.391C409.746 832.151 435.953 864.116 469.109 878.033C495.312 889.03 526.305 890.155 552.75 879.282C583.836 866.502 611.082 837.878 623.971 807.001C624.882 804.819 625.754 802.673 626.284 800.362Z"
       id="path18" />
    <path
       fill="white"
       transform="scale(0.5 0.5)"
       d="M434.99 658.2C440.086 662.622 444.905 667.17 450.288 671.28C461.282 679.675 473.217 686.641 485.836 692.295C495.152 696.47 503.929 700.057 514.335 699.371C523.193 698.788 531.61 695.15 539.492 691.319C552.817 684.841 564.429 677.249 576.132 668.219C579.516 665.609 584.36 662.61 586.906 659.235L587.404 658.462L586.487 688.83C586.879 726.044 588.671 764.789 616.95 792.669C619.774 795.452 622.961 798.198 626.284 800.362C625.754 802.673 624.882 804.819 623.971 807.001C611.082 837.878 583.836 866.502 552.75 879.282C526.305 890.155 495.312 889.03 469.109 878.033C435.953 864.116 409.746 832.151 396.398 799.391C399.456 797.438 402.478 795.257 405.108 792.75C420.555 778.024 430.233 757.897 433.929 737C435.823 726.293 436.355 715.057 436.567 704.201L434.99 658.2Z"
       id="path20" />
    <path
       fill="#A38BC0"
       transform="scale(0.5 0.5)"
       d="M434.99 658.2C440.086 662.622 444.905 667.17 450.288 671.28C461.282 679.675 473.217 686.641 485.836 692.295C495.152 696.47 503.929 700.057 514.335 699.371C523.193 698.788 531.61 695.15 539.492 691.319C552.817 684.841 564.429 677.249 576.132 668.219C579.516 665.609 584.36 662.61 586.906 659.235L587.404 658.462L586.487 688.83L586.109 689.183C580.668 694.39 575.907 700.824 570.708 706.382C554.415 723.8 534.891 737.416 511.941 744.471C500.142 740.372 488.267 735.207 477.671 728.552C462.525 719.039 448.338 705.442 437.086 691.543C437.038 695.642 437.377 700.189 436.567 704.201L434.99 658.2Z"
       id="path22" />
    <path
       fill="#26136E"
       transform="scale(0.5 0.5)"
       d="M672.269 531.849L673.131 532.397C677.944 535.563 682.211 540.273 686.843 543.831C700.412 554.255 714.634 562.691 731.312 567.065C736.52 568.431 742.272 569.67 747.669 569.488C758.74 580.756 767.757 593.487 767.587 609.958C767.523 616.256 766.009 621.709 763.335 627.375L763.097 627.981C758.783 638.651 749.836 647.427 741.833 655.399C737.493 659.722 732.982 663.89 730.139 669.407C726.164 677.118 726.695 686.953 730.003 694.815C735.555 708.007 749.067 717.012 761.148 723.602C765.22 725.823 769.515 728.253 773.836 729.947L774.419 730.14L795.602 738.821L802.664 742.689C808.728 746.43 814.6 750.19 819.547 755.402C825.611 761.79 829.388 769.985 832.021 778.318C832.442 783.805 832.859 789.354 832.422 794.852C830.811 815.113 821.635 834.994 808.526 850.343L795.185 863.38C797.516 858.605 800.178 854.002 802.239 849.099C809.158 832.632 812.223 815.091 811.969 797.27L759.719 851.055L750.289 848.928L690.312 832.44L669.029 825.015L655.176 819.152L641.213 810.892L633.027 805.32C634.167 803.021 634.613 795.389 633.475 792.857C632.956 791.701 632.272 790.967 631.046 790.599C630.483 790.43 630.51 790.407 630.032 790.746C627.594 792.475 626.978 797.6 626.284 800.362C622.961 798.198 619.774 795.452 616.95 792.669C588.671 764.789 586.879 726.044 586.487 688.83L587.404 658.462C591.907 653.364 597.531 649.105 602.086 643.895C618.092 625.587 625.256 603.32 630.259 579.963C632 583.418 633.642 586.689 637.446 588.25C641.249 589.811 645.309 590.149 649.137 588.554L649.717 588.301C651.844 586.032 653.065 582.791 654.26 579.951L661.163 561.515L672.269 531.849Z"
       id="path24" />
    <path
       fill="white"
       transform="scale(0.5 0.5)"
       d="M680.922 575.997C695.328 585.53 711.843 598.149 715.55 616.031C718.224 628.931 711.623 640.432 704.815 650.762L700.652 656.06C701.785 653.033 703.243 650.111 704.223 647.032C706.991 638.34 708.015 627.366 705.83 618.475C703.117 607.428 698.483 597.304 691.642 588.175C688.417 583.872 684.558 579.955 680.922 575.997Z"
       id="path26" />
    <path
       fill="#D8A404"
       transform="scale(0.5 0.5)"
       d="M762.726 749.669C765.77 750.158 769.068 752.182 771.858 753.522C783.683 759.204 795.706 765.791 803.548 776.667C807.752 782.497 810.878 790.162 811.969 797.27L759.719 851.055L750.289 848.928C753.288 844.864 757.02 841.205 760.185 837.234C769.683 825.316 776.172 811.465 778.221 796.296C780.658 778.264 773.344 763.576 762.726 749.669Z"
       id="path28" />
    <path
       fill="#3C1491"
       transform="scale(0.5 0.5)"
       d="M762.726 749.669C758.915 747.421 754.646 746.084 750.641 744.224C740.136 739.346 729.904 732.354 722.428 723.428C715.284 714.898 711.619 707.218 709.784 696.25C708.576 689.033 709.75 681.395 712.883 674.788C720.948 657.781 738.023 649.365 751.796 637.837C755.389 634.829 759.026 628.911 763.335 627.375L763.097 627.981C758.783 638.651 749.836 647.427 741.833 655.399C737.493 659.722 732.982 663.89 730.139 669.407C726.164 677.118 726.695 686.953 730.003 694.815C735.555 708.007 749.067 717.012 761.148 723.602C765.22 725.823 769.515 728.253 773.836 729.947L774.419 730.14L795.602 738.821L802.664 742.689C808.728 746.43 814.6 750.19 819.547 755.402C825.611 761.79 829.388 769.985 832.021 778.318C832.442 783.805 832.859 789.354 832.422 794.852C830.811 815.113 821.635 834.994 808.526 850.343L795.185 863.38C797.516 858.605 800.178 854.002 802.239 849.099C809.158 832.632 812.223 815.091 811.969 797.27C810.878 790.162 807.752 782.497 803.548 776.667C795.706 765.791 783.683 759.204 771.858 753.522C769.068 752.182 765.77 750.158 762.726 749.669Z"
       id="path30" />
    <path
       fill="#140E58"
       transform="scale(0.5 0.5)"
       d="M587.404 658.462C591.907 653.364 597.531 649.105 602.086 643.895C618.092 625.587 625.256 603.32 630.259 579.963C632 583.418 633.642 586.689 637.446 588.25C641.249 589.811 645.309 590.149 649.137 588.554L649.717 588.301C652.2 594.028 651.394 602.305 651.791 608.476C652.053 612.555 653.136 616.479 652.319 620.539C653.516 622.777 654.936 625.047 655.837 627.415C657.563 629.376 658.724 632.076 659.959 634.38C663.168 640.366 667.738 647.713 667.029 654.75C666.85 656.534 666.159 658.073 665.36 659.652C661.679 667.688 656.291 674.437 651.723 681.898L652.685 694.146C653.869 704.625 656.227 716.603 660.473 726.255C666.813 740.666 677.046 751.965 685.523 765C695.805 780.81 700.971 799.068 696.118 817.737C694.777 822.894 692.289 827.528 690.312 832.44L669.029 825.015L655.176 819.152L641.213 810.892L633.027 805.32C634.167 803.021 634.613 795.389 633.475 792.857C632.956 791.701 632.272 790.967 631.046 790.599C630.483 790.43 630.51 790.407 630.032 790.746C627.594 792.475 626.978 797.6 626.284 800.362C622.961 798.198 619.774 795.452 616.95 792.669C588.671 764.789 586.879 726.044 586.487 688.83L587.404 658.462Z"
       id="path32" />
    <path
       fill="white"
       transform="scale(0.5 0.5)"
       d="M642.203 593.75L644.25 593.575C645.544 594.156 647.62 594.85 648.425 596.072C649.246 597.319 649.177 599.575 648.792 600.985C648.29 602.821 647.273 603.541 645.75 604.461L645.016 604.619C643.329 604.844 640.973 604.038 639.806 602.75C638.683 601.511 638.392 599.853 638.658 598.25C639.012 596.112 640.484 594.85 642.203 593.75Z"
       id="path34" />
    <path
       fill="#FFF000"
       transform="scale(0.5 0.5)"
       d="M622.679 648.277C625.531 639.493 630.411 631.342 634.664 623.173C637.635 617.466 640.175 610.966 644.517 606.175L652.319 620.539C653.516 622.777 654.936 625.047 655.837 627.415C657.563 629.376 658.724 632.076 659.959 634.38C663.168 640.366 667.738 647.713 667.029 654.75C666.85 656.534 666.159 658.073 665.36 659.652C661.679 667.688 656.291 674.437 651.723 681.898L644.681 690.581C638.612 684.513 633.951 676.489 629.425 669.228C626.925 665.218 622.057 658.535 621.549 653.843C621.391 652.38 622.338 649.75 622.679 648.277Z"
       id="path36" />
    <path
       fill="white"
       transform="scale(0.5 0.5)"
       d="M644.146 633.25L645.054 633.473C649.126 638.722 651.453 646.913 654.019 653.086L644.66 663.619L634.927 652.474C637.174 646.317 640.238 638.554 644.146 633.25Z"
       id="path38" />
    <path
       fill="url(#gradient_0)"
       transform="scale(0.5 0.5)"
       d="M655.837 627.415C657.563 629.376 658.724 632.076 659.959 634.38C663.168 640.366 667.738 647.713 667.029 654.75C666.85 656.534 666.159 658.073 665.36 659.652C661.679 667.688 656.291 674.437 651.723 681.898L644.681 690.581C638.612 684.513 633.951 676.489 629.425 669.228C626.925 665.218 622.057 658.535 621.549 653.843C621.391 652.38 622.338 649.75 622.679 648.277C626.197 647.703 629.751 648.58 633.29 648.674C633.663 651.198 633.824 653.788 635.25 655.956L635.748 656.732C638.038 660.237 641.276 663.229 644.203 666.205C648.31 662.885 651.773 659.842 654.71 655.429L655.35 654.524C654.846 652.255 654.482 649.258 654.591 646.938C654.738 643.839 655.393 640.636 654.576 637.592C654.28 636.489 654.137 636.165 654.255 635L655 634.5L655.503 634.003L655.943 634.536C656.65 634.666 657.085 634.792 657.759 635.088L657.547 636.547C658.463 636.818 658.064 636.596 658.756 637.189C658.116 638.251 657.732 638.897 657.656 640.148C658.259 639.132 659.43 638.001 659.706 636.897C659.921 636.039 658.261 632.998 657.755 632.25C657.239 631.487 656.813 631.333 656.62 630.385C656.436 629.486 656.619 629.89 656.048 628.964L655.627 628.333L655.837 627.415Z"
       id="path47" />
    <path
       fill="#26136E"
       transform="scale(0.5 0.5)"
       d="M345.316 519.419C348.229 534.62 353.165 547.893 361.497 560.987C363.624 564.331 365.658 567.894 368.25 570.898L370.339 571.75L369.719 573.146C369.314 577.497 368.691 581.101 371.85 584.659C373.497 586.515 376.123 588.502 378.75 588.497C382.083 588.492 384.666 584.425 386.589 584.613C390.453 584.99 394.283 584.694 398.145 584.452C401.478 601.936 406.819 621.892 416.643 636.892C421.882 644.89 428.206 651.532 434.99 658.2L436.567 704.201C436.355 715.057 435.823 726.293 433.929 737C430.233 757.897 420.555 778.024 405.108 792.75C402.478 795.257 399.456 797.438 396.398 799.391C395.665 797.074 394.798 793.035 392.72 791.611L392.25 791.377C390.912 791.878 390.404 792.189 389.75 793.505C388.519 795.982 389.264 801.586 390.239 804.142L380.464 811.007L366.193 819.216L351.987 824.537L332.634 831.746L278.361 851.461L275.75 852.262L260.934 842.859C242.585 830.035 225.306 814.912 210.448 798.173L209.464 801.992C205.933 820.369 211.19 846.044 221.789 861.511C222.319 862.286 222.158 861.786 221.998 862.997L221.25 863.184L207.626 845.332C202.682 838.176 198.641 830.44 195.32 822.409C190.124 809.844 185.323 790.762 190.78 777.673C192.253 773.652 193.652 769.411 195.692 765.637C201.235 755.378 209.699 749.467 219.504 743.785L227.578 739.508L246.712 729.653C262.476 721.658 278.542 713.1 289.785 699.018C294.778 692.764 297.775 686.565 296.666 678.347C294.132 659.57 272.082 649.378 260.438 636.604C256.302 632.067 252.94 626.964 252.265 620.734C251.719 615.696 252.893 610.71 254.625 606C260.11 591.083 271.959 577.117 281.854 564.755L288.228 563.118C304.637 559.211 322.898 549.053 333.911 536.223C336.582 533.111 339.101 529.796 341.398 526.399C342.176 525.248 342.753 523.812 343.598 522.75C344.727 521.333 344.923 521.234 345.316 519.419Z"
       id="path49" />
    <path
       fill="#3C1491"
       transform="scale(0.5 0.5)"
       d="M238.485 761.531L238.126 760.658L238.641 760.36C239.464 759.878 240.092 759.439 240.75 758.755L241.5 758.75L241.898 758.43C243.114 757.518 244.362 757.103 245.462 756.009C246.295 755.18 247.139 755.022 248.125 754.503L248.914 754.01C250.951 752.752 254.127 751.057 256.469 750.659C258.492 750.315 259.555 748.498 261.677 748.75L260.851 749.18C256.4 751.555 253.744 757.579 250.852 761.639L245.769 757.255L238.485 761.531Z"
       id="path51" />
    <path
       fill="#A38BC0"
       transform="scale(0.5 0.5)"
       d="M328.035 581.25L328.692 581.131L327.011 584.162C323.44 590.592 321.461 598.676 320.403 605.897C317.245 627.46 321.351 646.281 327.186 666.975L322.26 659.308C313.763 644.781 304.277 628.576 306.733 610.923C308.516 598.102 318.112 588.56 328.035 581.25Z"
       id="path53" />
    <path
       fill="#D8A404"
       transform="scale(0.5 0.5)"
       d="M238.485 761.531L245.769 757.255L250.852 761.639C249.371 765.13 247.763 768.645 246.904 772.353C243.924 785.209 246.213 799.743 251.187 811.849C254.672 820.33 259.627 828.324 265.25 835.546L278.361 851.461L275.75 852.262L260.934 842.859C242.585 830.035 225.306 814.912 210.448 798.173C211.851 792.647 213.262 787.269 216.054 782.25C221.109 773.164 230.112 767.24 238.485 761.531Z"
       id="path55" />
    <path
       fill="#140E58"
       transform="scale(0.5 0.5)"
       d="M370.463 624.445C370.298 620.155 370.735 615.73 370.24 611.484C369.127 601.929 366.368 592.517 366.357 582.854C366.354 579.943 366.294 577.077 367.094 574.25C368.207 573.292 368.257 573.254 369.719 573.146C369.314 577.497 368.691 581.101 371.85 584.659C373.497 586.515 376.123 588.502 378.75 588.497C382.083 588.492 384.666 584.425 386.589 584.613C390.453 584.99 394.283 584.694 398.145 584.452C401.478 601.936 406.819 621.892 416.643 636.892C421.882 644.89 428.206 651.532 434.99 658.2L436.567 704.201C436.355 715.057 435.823 726.293 433.929 737C430.233 757.897 420.555 778.024 405.108 792.75C402.478 795.257 399.456 797.438 396.398 799.391C395.665 797.074 394.798 793.035 392.72 791.611L392.25 791.377C390.912 791.878 390.404 792.189 389.75 793.505C388.519 795.982 389.264 801.586 390.239 804.142L380.464 811.007L366.193 819.216L351.987 824.537L332.634 831.746L328.347 823.938C308.356 783.808 349.919 751.621 366.46 719.577C370.282 712.172 373.082 703.474 374.429 695.246C375.065 691.362 375.015 687.083 376.274 683.371L364.335 666.608C362.42 663.811 359.845 660.568 358.674 657.375C356.879 652.478 359.692 646.818 361.672 642.36L370.463 624.445Z"
       id="path57" />
    <path
       fill="white"
       transform="scale(0.5 0.5)"
       d="M378.142 594.75C379.014 594.458 380.069 594.263 381 594.4C382.292 594.591 383.186 595.187 383.955 596.21C385.14 597.788 385.178 599.372 384.997 601.25C384.186 602.76 383.749 603.196 382.25 604.029C381.616 604.236 381.483 604.313 380.75 604.379C379.367 604.505 377.693 603.83 376.75 602.828C375.831 601.852 375.424 600.641 375.457 599.311C375.514 597.062 376.651 596.203 378.142 594.75Z"
       id="path59" />
    <path
       fill="#FFF000"
       transform="scale(0.5 0.5)"
       d="M370.463 624.445C373.504 618.801 376.072 611.179 380.097 606.391C383.517 611.325 385.593 617.123 388.253 622.485C392.147 630.334 396.587 637.816 399.362 646.164C401.015 649.534 401.651 652.48 401.985 656.17C396.665 668.038 388.428 678.632 380.704 689.007L376.274 683.371L364.335 666.608C362.42 663.811 359.845 660.568 358.674 657.375C356.879 652.478 359.692 646.818 361.672 642.36L370.463 624.445Z"
       id="path61" />
    <path
       fill="white"
       transform="scale(0.5 0.5)"
       d="M379.779 633.055C384.427 638.574 386.99 645.356 390.032 651.805C388.527 655.619 383.978 659.738 381.185 662.75C380.72 663.037 380.251 663.23 379.75 663.444L370.509 651.555L379.779 633.055Z"
       id="path63" />
    <path
       fill="#A38BC0"
       transform="scale(0.5 0.5)"
       d="M361.672 642.36L362.052 642.549C365.158 644.198 369.113 648.89 370.002 652.25L370.192 653.122C371.081 656.72 374.898 659.996 377.121 662.945C378.371 664.604 379.186 666.658 380.044 668.537L395.31 651.25C396.561 649.69 398.471 647.89 399.362 646.164C401.015 649.534 401.651 652.48 401.985 656.17C396.665 668.038 388.428 678.632 380.704 689.007L376.274 683.371L364.335 666.608C362.42 663.811 359.845 660.568 358.674 657.375C356.879 652.478 359.692 646.818 361.672 642.36Z"
       id="path65" />
    <path
       fill="#FFF000"
       transform="scale(0.5 0.5)"
       d="M531.542 105.938C551.77 106.532 571.486 109.19 591.338 113.061C659.453 126.342 724.752 157.497 777.95 202.157C791.636 213.647 804.337 226.447 816.578 239.445C824.976 248.362 832.283 257.999 839.693 267.724C886.225 328.795 915.364 401.531 921.834 478.22C922.974 491.73 923.815 505.439 923.374 519L922.937 525.704C919.285 542.054 916.273 558.505 911.472 574.589C907.484 587.951 902.363 600.601 896.695 613.322C891.272 625.495 885.498 637.566 878.802 649.096C866.275 670.668 850.645 691.403 834.137 710.078L802.664 742.689L795.602 738.821L774.419 730.14C780.55 719.525 789.352 710.268 796.017 699.886C807.909 681.362 818.648 662.28 827.104 641.927C836.753 618.7 843.328 593.994 847.461 569.214C852.262 540.423 852.615 510.873 849.697 481.864C843.716 422.393 823.845 366.46 788.973 317.754C768.279 288.851 743.605 264.095 715.151 242.841C709.121 238.337 703.049 233.67 696.712 229.609C665.18 209.401 629.508 194.66 593.195 185.774C578.538 182.187 563.885 180.779 549.074 178.344L544.343 154.611L531.542 105.938Z"
       id="path67" />
    <path
       fill="#675E7C"
       transform="scale(0.5 0.5)"
       d="M544.343 154.611C636.926 162.899 728.379 208.638 788.161 280.23C803.766 298.917 818.171 318.813 829.996 340.125C834.386 348.037 838.102 356.333 841.847 364.562C867.776 421.524 878.734 484.163 873.019 546.562C868.615 594.639 855.207 642.443 831.704 684.776C821.05 703.968 808.764 721.327 795.602 738.821L774.419 730.14C780.55 719.525 789.352 710.268 796.017 699.886C807.909 681.362 818.648 662.28 827.104 641.927C836.753 618.7 843.328 593.994 847.461 569.214C852.262 540.423 852.615 510.873 849.697 481.864C843.716 422.393 823.845 366.46 788.973 317.754C768.279 288.851 743.605 264.095 715.151 242.841C709.121 238.337 703.049 233.67 696.712 229.609C665.18 209.401 629.508 194.66 593.195 185.774C578.538 182.187 563.885 180.779 549.074 178.344L544.343 154.611Z"
       id="path69" />
    <path
       fill="#FFF000"
       transform="scale(0.5 0.5)"
       d="M101.007 538.908L99.3798 512.987C99.2164 407.877 142.664 302.814 216.959 228.459C229.999 215.409 243.59 202.936 258.172 191.614C310.343 151.11 372.285 123.414 437.361 112.07C455.249 108.952 473.097 106.456 491.279 106.447L478.796 155.293L473.835 178.672C387.851 187.223 304.882 232.562 250.181 299.411C194.047 368.011 166.389 460.023 175.288 548.302C180.395 598.968 194.522 645.622 219.968 689.934C227.799 703.572 236.709 717.498 246.712 729.653L227.578 739.508L219.504 743.785C212.441 737.937 205.905 731.047 199.565 724.431C173.656 697.396 151.624 666.86 134.336 633.655C127.625 620.766 121.239 607.564 116.315 593.878C112.092 582.138 108.547 570.1 105.512 558C103.92 551.655 103.002 545.142 101.007 538.908Z"
       id="path71" />
    <path
       fill="#675E7C"
       transform="scale(0.5 0.5)"
       d="M227.578 739.508C224.303 734.326 220.272 729.488 216.666 724.517L202.344 702.87C170.792 650.536 153.778 590.895 150.675 530C145.932 436.928 181.31 341.141 243.96 272.435C293.682 217.908 360.688 179.329 432.461 162.689C447.634 159.171 463.213 156.011 478.796 155.293L473.835 178.672C387.851 187.223 304.882 232.562 250.181 299.411C194.047 368.011 166.389 460.023 175.288 548.302C180.395 598.968 194.522 645.622 219.968 689.934C227.799 703.572 236.709 717.498 246.712 729.653L227.578 739.508Z"
       id="path73" />
    <path
       fill="#A38BC0"
       transform="scale(0.5 0.5)"
       d="M549.074 178.344C563.885 180.779 578.538 182.187 593.195 185.774C629.508 194.66 665.18 209.401 696.712 229.609C703.049 233.67 709.121 238.337 715.151 242.841C743.605 264.095 768.279 288.851 788.973 317.754C823.845 366.46 843.716 422.393 849.697 481.864C852.615 510.873 852.262 540.423 847.461 569.214C843.328 593.994 836.753 618.7 827.104 641.927C818.648 662.28 807.909 681.362 796.017 699.886C789.352 710.268 780.55 719.525 774.419 730.14L773.836 729.947C769.515 728.253 765.22 725.823 761.148 723.602C749.067 717.012 735.555 708.007 730.003 694.815C726.695 686.953 726.164 677.118 730.139 669.407C732.982 663.89 737.493 659.722 741.833 655.399C749.836 647.427 758.783 638.651 763.097 627.981L763.335 627.375C766.009 621.709 767.523 616.256 767.587 609.958C767.757 593.487 758.74 580.756 747.669 569.488C742.272 569.67 736.52 568.431 731.312 567.065C714.634 562.691 700.412 554.255 686.843 543.831C682.211 540.273 677.944 535.563 673.131 532.397L672.269 531.849C674.752 521.914 678.138 512.659 673.84 502.606C671.404 496.908 668.135 493.949 662.508 491.729L661.005 491.255C660.17 478.013 655.994 464.681 649.278 453.219C643.857 443.968 637.371 435.636 630.171 427.729C628.71 426.125 626.739 423.236 624.606 422.679L623.494 421C620.085 415.722 615.602 411.031 611.387 406.388L592.507 386.767C589.593 383.957 585.978 381.775 583.348 378.745C601.628 373.034 625.884 372.705 643.158 381.804C656.519 388.842 668.037 401.646 673.9 415.564C674.791 417.679 676.005 423.674 677.5 424.933L678.065 423.492C678.732 422.756 679.127 422.322 680.074 421.94L680.75 421.71L681.078 409.903L680.639 400.553C678.986 384.625 675.494 370.472 669.643 355.607C666.734 348.966 664.109 342.297 660.686 335.885C656.395 327.847 651.211 320.475 645.87 313.117C640.699 307.175 635.666 301.1 629.926 295.686C624.86 290.909 619.214 286.651 613.769 282.314C598.591 269.947 578.242 259.233 559.115 254.8L549.074 178.344Z"
       id="path75" />
    <path
       fill="white"
       transform="scale(0.5 0.5)"
       d="M613.769 282.314L666.996 249.92C677.235 243.862 688.327 238.143 697.614 230.711L673.488 269.41L654.347 300.766C651.746 304.85 649.228 309.608 645.87 313.117C640.699 307.175 635.666 301.1 629.926 295.686C624.86 290.909 619.214 286.651 613.769 282.314Z"
       id="path77" />
    <path
       fill="white"
       transform="scale(0.5 0.5)"
       d="M669.643 355.607L776.468 341.83L730 370.498L689.807 395.72C687.812 396.932 683.701 400.207 681.526 400.662C681.234 400.723 680.935 400.589 680.639 400.553C678.986 384.625 675.494 370.472 669.643 355.607Z"
       id="path79" />
    <path
       fill="#3C1491"
       transform="scale(0.5 0.5)"
       d="M583.348 378.745C601.628 373.034 625.884 372.705 643.158 381.804C656.519 388.842 668.037 401.646 673.9 415.564C674.791 417.679 676.005 423.674 677.5 424.933L678.065 423.492C678.732 422.756 679.127 422.322 680.074 421.94L680.75 421.71L681.078 409.903C682.729 423.745 679.335 436.715 678.228 450.329C690.533 462.477 705.292 470.095 722.914 470.005C741.436 469.91 756.565 459.704 769.101 446.824C774.023 441.767 778.185 436.309 781.905 430.317C783.777 427.3 785.49 422.983 787.919 420.485C784.686 434.568 779.575 446.642 772.696 459.32C763.177 476.865 750.248 494.048 733.106 504.807C728.104 507.946 722.623 510.7 717.019 512.585C714.162 513.546 710.192 514.014 707.679 515.487C723.135 531.06 744.616 540.254 766.488 540.335C792.841 540.431 812.456 526.906 830.422 508.917C816.266 533.428 796.237 558.894 767.469 566.549C760.802 568.323 754.436 568.534 747.669 569.488C742.272 569.67 736.52 568.431 731.312 567.065C714.634 562.691 700.412 554.255 686.843 543.831C682.211 540.273 677.944 535.563 673.131 532.397L672.269 531.849C674.752 521.914 678.138 512.659 673.84 502.606C671.404 496.908 668.135 493.949 662.508 491.729L661.005 491.255C660.17 478.013 655.994 464.681 649.278 453.219C643.857 443.968 637.371 435.636 630.171 427.729C628.71 426.125 626.739 423.236 624.606 422.679L623.494 421C620.085 415.722 615.602 411.031 611.387 406.388L592.507 386.767C589.593 383.957 585.978 381.775 583.348 378.745Z"
       id="path81" />
    <path
       fill="white"
       transform="scale(0.5 0.5)"
       d="M440.196 377.841C446.967 378.916 453.596 381.258 460.266 382.864C471.124 385.479 482.384 386.947 493.533 387.436C496.462 387.579 500.087 387.501 502.833 388.542C505.772 389.657 509.25 394.008 511.433 396.252C513.739 393.982 516.158 391.761 518.207 389.255C519.083 388.183 519.588 387.735 521 387.517L523.808 387.452C526.48 386.859 529.584 387.065 532.328 386.906L546.778 385.656C559.096 384.189 571.219 381.29 583.348 378.745C585.978 381.775 589.593 383.957 592.507 386.767L611.387 406.388C615.602 411.031 620.085 415.722 623.494 421L624.606 422.679C626.739 423.236 628.71 426.125 630.171 427.729C637.371 435.636 643.857 443.968 649.278 453.219C655.994 464.681 660.17 478.013 661.005 491.255L662.508 491.729C668.135 493.949 671.404 496.908 673.84 502.606C678.138 512.659 674.752 521.914 672.269 531.849L661.163 561.515L654.26 579.951C653.065 582.791 651.844 586.032 649.717 588.301L649.137 588.554C645.309 590.149 641.249 589.811 637.446 588.25C633.642 586.689 632 583.418 630.259 579.963C625.256 603.32 618.092 625.587 602.086 643.895C597.531 649.105 591.907 653.364 587.404 658.462L586.906 659.235C584.36 662.61 579.516 665.609 576.132 668.219C564.429 677.249 552.817 684.841 539.492 691.319C531.61 695.15 523.193 698.788 514.335 699.371C503.929 700.057 495.152 696.47 485.836 692.295C473.217 686.641 461.282 679.675 450.288 671.28C444.905 667.17 440.086 662.622 434.99 658.2C428.206 651.532 421.882 644.89 416.643 636.892C406.819 621.892 401.478 601.936 398.145 584.452C394.283 584.694 390.453 584.99 386.589 584.613C384.666 584.425 382.083 588.492 378.75 588.497C376.123 588.502 373.497 586.515 371.85 584.659C368.691 581.101 369.314 577.497 369.719 573.146L370.339 571.75L368.25 570.898C365.658 567.894 363.624 564.331 361.497 560.987C353.165 547.893 348.229 534.62 345.316 519.419L344.366 504.082C344.441 503.653 344.558 502.44 344.75 502.108C344.935 501.79 346.559 500.838 346.89 500.604C348.999 499.116 351.206 497.651 353.159 495.966C355.518 493.931 357.513 491.478 359.201 488.867C360.69 485.542 362.577 482.712 363.607 479.147C365.132 473.866 365.194 467.948 365.683 462.48C366.954 448.281 373.037 436.011 382.931 425.798C393.269 415.127 404.723 403.652 416.934 395.142C419.522 393.338 422.654 390.738 425.88 390.667C427.299 390.126 430.301 386.375 431.546 385.186C434.283 382.575 437.246 380.206 440.196 377.841Z"
       id="path83" />
    <path
       fill="#C8C7DC"
       transform="scale(0.5 0.5)"
       d="M499.701 597.97L500.641 598.315C502.417 598.999 503.848 600.17 505.5 601.068C510.895 603.999 516.6 602.818 522.214 600.923C520.264 606.524 516.212 608.632 511.212 611.216C505.999 607.912 502.871 603.087 499.701 597.97Z"
       id="path85" />
    <path
       fill="#C8C7DC"
       transform="scale(0.5 0.5)"
       d="M388.468 560.018C385.604 550.791 383.959 543.143 384.79 533.415L384.869 533.905C385.084 535.182 385.35 535.643 385.867 536.75L395.473 568.492L387 566.014C385.87 565.728 384.315 565.627 383.512 564.779L384.483 564.567L386.497 565.078L387.5 565.255C388.374 565.488 388.525 565.756 389.5 565.75L388.084 564.645L388.75 564.255L389.5 564C389.088 563.267 388.691 562.65 388.158 561.993L387.653 561.392L388 561.178L388.867 560.983L388.468 560.018Z"
       id="path87" />
    <path
       fill="#A38BC0"
       transform="scale(0.5 0.5)"
       d="M499.701 597.97L499.391 597.676C496.362 594.936 491.698 593.29 487.992 591.638C489.492 588.192 491.837 583.508 495.5 581.985C496.845 581.426 497.945 581.457 499.34 581.671C500.451 582.784 501.089 583.652 501.872 585.012C503.787 588.335 508.448 590.607 511.629 592.657C514.16 591.359 517.472 590.171 519.75 588.569C523.788 585.729 522.992 580.047 529.481 582.003C533.422 583.191 535.371 588.233 537.178 591.57C531.047 593.603 526.082 595.411 522.214 600.923C516.6 602.818 510.895 603.999 505.5 601.068C503.848 600.17 502.417 598.999 500.641 598.315L499.701 597.97Z"
       id="path89" />
    <path
       fill="#C8C7DC"
       transform="scale(0.5 0.5)"
       d="M403.822 487.281C407.688 484.547 411.86 481.641 416.23 479.763C425.445 475.803 439.077 474.897 448.893 476.584C454.011 477.464 458.088 479.311 462.792 481.36C468.614 483.896 475.972 487.1 479.516 492.653C480.386 494.016 480.729 495.424 480.983 497L480.588 497.25L480.208 496.889C476.619 493.564 471.721 491.541 467.25 489.693C462.248 487.625 457.26 485.659 451.953 484.511C449.22 483.92 446.44 483.962 443.746 483.379C441.628 482.921 436.073 483.63 434.212 484.817C432.326 486.021 429.765 487.914 428.394 489.676L428.341 489.709C423.402 491.142 417.622 492.431 412.522 491.164C409.419 490.393 406.599 488.814 403.822 487.281Z"
       id="path91" />
    <path
       fill="#140E58"
       transform="scale(0.5 0.5)"
       d="M424.799 452.2L425.012 452.146C442.531 450.456 460.295 460.894 473.809 471.084C481.511 476.892 488.564 482.831 489.993 492.807C488.928 491.108 487.801 488.957 486.25 487.65C484.565 486.23 482.099 485.231 480.131 484.253L468.86 478.758L438.427 464.698C422.911 459.115 408.439 459.855 393.6 466.918C401.444 457.754 413.153 453.408 424.799 452.2Z"
       id="path93" />
    <path
       fill="#140E58"
       transform="scale(0.5 0.5)"
       d="M533.983 483.025C532.572 481.776 532.04 481.074 531.527 479.25C531.934 476.802 535.791 474.338 537.684 472.897C555.54 459.306 579.254 448.966 602.105 452.142C615.433 453.994 625.393 462.088 633.31 472.501C630.73 470.328 627.779 468.313 624.81 466.706C608.898 458.094 592.499 460.956 575.969 465.964C566.144 468.423 556.663 472.825 547.501 477.074C543.329 479.009 538.466 482.171 533.983 483.025Z"
       id="path95" />
    <path
       fill="#CABEEB"
       transform="scale(0.5 0.5)"
       d="M383.512 564.779C378.348 562.878 372.334 557.607 368.889 553.333L368.346 552.65C361.066 543.599 356.978 532.171 354.351 521C353.698 518.221 352.43 510.646 354.191 508.273C357.45 503.88 366.276 508.087 370.438 508.018L370.963 508.002C373.168 513.078 373.756 518.805 375.645 524.008C378.395 533.91 380.448 544.247 384.704 553.64C385.61 555.64 386.814 558.556 388.468 560.018L388.867 560.983L388 561.178L387.653 561.392L388.158 561.993C388.691 562.65 389.088 563.267 389.5 564L388.75 564.255L388.084 564.645L389.5 565.75C388.525 565.756 388.374 565.488 387.5 565.255L386.497 565.078L384.483 564.567L383.512 564.779Z"
       id="path97" />
    <path
       fill="#A38BC0"
       transform="scale(0.5 0.5)"
       d="M370.963 508.002C373.168 513.078 373.756 518.805 375.645 524.008L374.828 524.312C373.775 524.685 372.969 524.954 372.104 525.689C367.03 530.001 367.955 539.765 367.618 545.874C366.065 541.487 365.918 534.941 367.007 530.413C367.288 529.243 368.744 525.034 368.523 524.085C368.286 523.069 367.161 521.403 366.643 520.429L365.818 518.83C365.146 517.232 364.118 513.337 364.88 511.739C365.519 510.398 367.508 509.085 368.918 508.708C370.168 508.375 368.754 508.908 370.31 508.277L370.963 508.002Z"
       id="path99" />
    <path
       fill="#A38BC0"
       transform="scale(0.5 0.5)"
       d="M656.783 502.187C659.421 502.877 662.385 503.808 663.917 506.25C664.316 506.886 664.434 507.531 664.583 508.25L664.712 508.833C665.563 513.211 663.537 518.35 662.11 522.429L655.455 541C653.9 545.352 651.994 549.532 651.716 554.181L650.694 560.405L651.088 551.375C647.803 553.18 641.986 555.348 640.893 559.162C640.229 561.48 640.424 563.883 640.627 566.25C641.545 567.523 641.564 567.897 643.189 568.159C644.42 568.357 645.433 567.915 646.436 567.237C648.308 565.973 649.44 563.551 650.407 561.602C649.954 566.155 650.713 582.07 646.92 584.306C645.063 585.401 640.988 584.973 639.108 584.224C635.953 582.966 633.475 575.348 632.133 572.291L634.39 557.19C634.551 555.728 634.463 551.4 635.078 550.25C635.194 550.034 636.125 549.107 636.25 549.015L637.716 548.298L637.209 547.846L638.009 546.822C640.726 543.468 642.019 539.323 643.675 535.366C648.266 524.395 651.733 512.954 656.783 502.187Z"
       id="path101" />
    <path
       fill="#140E58"
       transform="scale(0.5 0.5)"
       d="M511.657 413.783L520.596 427.349C523.936 432.565 527.559 438.049 528.29 444.346C529.474 454.553 517.946 463.712 512.109 470.973C506.615 463.316 498.398 455.691 496.163 446.269C494.261 438.256 500.391 430.708 504.649 424.574L511.657 413.783Z"
       id="path103" />
    <path
       fill="#3C1491"
       transform="scale(0.5 0.5)"
       d="M504.145 433.592C506.143 429.62 509.024 425.944 511.598 422.32L517.123 431.417C520.14 436.547 523.799 441.673 522.667 447.972C521.466 454.659 515.308 461.123 511.924 467.006C507.689 461.397 502.846 455.002 501.817 447.877L501.542 446.75L501.14 445.258C500.064 440.787 501.872 437.342 504.145 433.592Z"
       id="path105" />
    <path
       fill="#CB65E8"
       transform="scale(0.5 0.5)"
       d="M508.936 434.201L510.972 433.655C511.941 435.092 511.742 437.402 511.838 439.087C512.132 444.22 512.493 449.38 511.902 454.5C511.444 455.131 511.293 455.536 510.576 455.876C508.649 455.634 507.001 453.546 505.873 452.03L505.528 451.523L504.821 451.384C503.316 450.963 502.553 449.124 501.817 447.877L501.542 446.75L501.14 445.258C500.064 440.787 501.872 437.342 504.145 433.592C504.416 434.019 504.636 434.399 505 434.755L505.625 434.502C506.73 434.134 507.79 434.208 508.936 434.201Z"
       id="path107" />
    <path
       fill="#8721C6"
       transform="scale(0.5 0.5)"
       d="M504.145 433.592C504.416 434.019 504.636 434.399 505 434.755L505.625 434.502C506.73 434.134 507.79 434.208 508.936 434.201C505.56 438.211 504.686 441.557 505.169 446.826C505.53 450.755 508.098 453.048 510.576 455.876C508.649 455.634 507.001 453.546 505.873 452.03L505.528 451.523L504.821 451.384C503.316 450.963 502.553 449.124 501.817 447.877L501.542 446.75L501.14 445.258C500.064 440.787 501.872 437.342 504.145 433.592Z"
       id="path109" />
    <path
       fill="#C8C7DC"
       transform="scale(0.5 0.5)"
       d="M533.983 483.025C538.466 482.171 543.329 479.009 547.501 477.074C556.663 472.825 566.144 468.423 575.969 465.964C575.56 466.591 575.434 466.909 574.75 467.255C575.656 467.859 575.916 467.84 576.95 468.05L577.713 468.225C581.604 469.097 585.624 469.266 589.52 470.253C601.222 473.22 612.155 478.184 622.941 483.461C617.91 486.57 614.058 486.736 608.25 485.623C607.57 485.493 607.845 485.443 607.25 485.238L606.003 484.944C602.818 484.189 599.57 483.267 596.33 482.835C595.005 482.658 593.487 482.905 592.25 482.431C590.956 481.936 588.934 482.197 587.539 482.188C584.53 482.168 577.299 481.303 574.705 482.474L574.25 482.699C573.234 482.908 572.757 482.889 571.75 483.236L570.497 483.469L568.997 483.965L566.779 484.7C564.88 485.367 563.02 486.449 561.217 487.351L558.28 489.057C554.445 491.075 548.603 497.184 546.202 500.75L545.768 501.265C544.485 502.861 541.421 509.463 539.72 509.805C537.053 510.341 534.871 511.292 532.43 512.446C530.967 503.282 531.58 493.226 533.822 484.226C533.994 483.536 533.939 483.809 533.983 483.025Z"
       id="path111" />
    <path
       fill="#140E58"
       transform="scale(0.5 0.5)"
       d="M624.606 422.679C626.739 423.236 628.71 426.125 630.171 427.729C637.371 435.636 643.857 443.968 649.278 453.219C655.994 464.681 660.17 478.013 661.005 491.255L656.783 502.187C651.733 512.954 648.266 524.395 643.675 535.366C642.019 539.323 640.726 543.468 638.009 546.822L637.209 547.846L635.741 547.262L639.497 511.057C639.958 509.068 639.635 506.97 640.035 505C641.091 499.792 640.515 493.424 640.374 488.068C640.062 476.192 639.242 464.406 636.327 452.843C633.642 442.191 629.418 432.502 624.606 422.679Z"
       id="path113" />
    <path
       fill="#140E58"
       transform="scale(0.5 0.5)"
       d="M556.901 503.068C552.419 504.48 546.232 509.673 543.63 513.601C542.36 515.52 541.312 518.306 539.59 519.804C541.134 514.862 543.27 511.038 546.452 506.964C555.057 495.95 565.179 491.567 578.75 489.863C584.852 489.097 591.107 489.377 597.221 489.922C605.481 490.658 616.535 493.241 624.304 489.691C627.509 488.226 630.169 485.458 632.98 483.356C631.658 486.501 629.895 489.283 627.677 491.878C624.76 495.289 617.457 500.467 616.974 505C617.531 505.637 618.051 506.189 618.468 506.929C617.463 507.024 617.933 507.027 616.767 506.895L615.874 506.785L612.762 510.25C612.747 511.593 613.062 511.758 613.869 512.861C612.824 512.566 611.961 512.309 610.865 512.306L606.554 516.75C606.496 518.798 606.991 519.455 607.904 521.25C606.378 520.38 605.755 518.917 604.25 518.072L600.1 520.294L601.513 525.533L597.333 521.536L593.75 523.084C588.394 524.066 582.741 525.081 577.251 525.016C570.386 524.934 562.313 524.365 555.75 522.32C556.543 522.104 556.311 522.078 556.981 522.149C567.845 523.293 582.513 524.061 592.588 519.214C600.727 515.298 604.88 509.671 607.764 501.242C602.655 497.109 596.764 495.787 590.385 495.27C593.004 498.329 594.294 499.942 593.985 504.222C593.686 508.357 591.291 513.489 588.082 516.13C584.456 519.115 579.098 520.547 574.453 519.988C569.97 519.448 565.938 516.022 563.416 512.461C561.576 509.862 560.36 507.338 557.466 505.75C555.917 505.75 555.92 506.017 554.75 507.075L554.436 506.5L556.901 503.068Z"
       id="path115" />
    <path
       fill="#FFF000"
       transform="scale(0.5 0.5)"
       d="M585.176 494.819L590.385 495.27C593.004 498.329 594.294 499.942 593.985 504.222C593.686 508.357 591.291 513.489 588.082 516.13C584.456 519.115 579.098 520.547 574.453 519.988C569.97 519.448 565.938 516.022 563.416 512.461C561.576 509.862 560.36 507.338 557.466 505.75C555.917 505.75 555.92 506.017 554.75 507.075L554.436 506.5L556.901 503.068C560.746 500.581 564.717 497.701 568.979 496.045C569.846 496.888 569.7 496.893 569.924 498L569.089 499.102C567.428 499.818 566.99 499.742 565.25 499.577L564.949 500.094C564.116 501.999 564.25 504.429 565.083 506.303C566.48 509.448 568.656 512.66 572.055 513.844C575.105 514.906 579.279 513.859 581.97 512.31C584.463 510.875 586.569 508.587 587.324 505.77C588.494 501.404 587.217 498.594 585.176 494.819Z"
       id="path117" />
    <path
       fill="#3C1491"
       transform="scale(0.5 0.5)"
       d="M475.461 627.274C472.387 625.667 469.702 623.647 466.931 621.573C472.838 623.219 478.52 623.819 484.5 621.889C496.345 618.067 500.426 609.864 512.415 621.44L512.726 621.069C515.101 618.343 519.604 615.714 523.25 615.493C531.488 614.991 536.988 621.472 544.594 622.818C549.04 623.605 553.372 622.739 557.75 622.058C554.767 624.426 551.185 625.896 548.334 628.328C545.014 631.161 542.305 634.719 539.147 637.733C530.455 646.028 519.46 650.147 507.433 648.889C496.118 647.704 486.335 639.897 479.485 631.271C478.692 630.272 478.176 629.369 477.746 628.175L475.461 627.274Z"
       id="path119" />
    <path
       fill="#8721C6"
       transform="scale(0.5 0.5)"
       d="M505.339 637.117L508.75 636.938C511.399 636.886 517.412 636.304 519.75 637.591C520.29 637.888 520.996 638.796 521.465 639.25L521.487 641.25C520.35 642.591 519.391 643.096 517.789 643.791C513.533 644.373 507.463 644.93 503.5 642.927C501.701 642.017 501.88 640.526 501.526 638.75C502.594 637.526 503.79 637.52 505.339 637.117Z"
       id="path121" />
    <path
       fill="#26136E"
       transform="scale(0.5 0.5)"
       d="M518.436 627.308C523.771 624.842 528.134 625.209 533.756 625.846C536.535 626.333 539.451 627.052 542.25 627.263C544.312 627.419 546.317 626.82 548.229 627.842C541.097 629.869 534.552 629.363 527.25 629.65C523.095 629.814 519.027 630.494 514.845 630.527C508.649 630.575 502.596 629.825 496.433 629.537C491.924 629.326 487.328 629.518 482.842 629.026C481.344 628.862 479.877 628.24 478.477 628.082L477.746 628.175L475.461 627.274L476.75 625.943C479.882 626.053 482.973 626.364 486.113 626.212C492.447 625.904 497.676 624.81 503.907 626.643C507.566 627.719 514.686 628.307 518.436 627.308Z"
       id="path123" />
    <path
       fill="#140E58"
       transform="scale(0.5 0.5)"
       d="M428.394 489.676C436.291 488.613 443.407 488.501 451.215 490.25C460.185 492.259 469.881 498.014 475.321 505.478C478.736 510.164 481.197 515.454 484.314 520.338C483.442 520.242 483.692 520.352 483.036 520.038C480.017 518.594 477.781 518.38 474.5 518.397L474.821 518.511C473.559 519.506 471.019 522.104 469.534 522.25C470.102 521.244 470.669 520.389 470.919 519.25C468.225 518.565 463.873 519.378 461.25 520.128C450.979 523.067 439.835 520.582 430.25 516.51C425.093 514.32 421.061 510.958 416.25 508.268L415.5 509.121L414.997 508.75L415.75 507.948L415.701 507.25C414.708 505.98 413.956 504.976 412.5 504.192L410.685 505.339L411.162 503.25C410.885 502.61 410.692 502.391 410.113 501.993C402.204 496.549 396.147 485.578 392.799 476.815C396.059 481.011 399.343 484.377 403.822 487.281C406.599 488.814 409.419 490.393 412.522 491.164C417.622 492.431 423.402 491.142 428.341 489.709L428.394 489.676Z"
       id="path125" />
    <path
       fill="white"
       transform="scale(0.5 0.5)"
       d="M431.502 493.374C432.514 493.162 433.142 493.197 434.151 493.358L443.51 494.635C447.152 494.071 454.922 493.834 457.987 495.883L461.325 497.382C470.708 501.305 476.739 509.174 481.018 518.191C480.404 518.255 479.883 518.254 479.275 518.133C471.85 516.651 465.089 519.272 457.76 519.914C445.77 520.965 434.115 518.666 424.726 510.793C421.753 508.3 417.627 504.21 417.293 500.25L418.433 499.248C422.075 496.51 427.109 494.443 431.502 493.374Z"
       id="path127" />
    <path
       fill="#FFF000"
       transform="scale(0.5 0.5)"
       d="M457.987 495.883L461.325 497.382C462.525 500.202 463.467 502.405 463.165 505.515C462.848 508.781 461.159 512.177 458.496 514.171C454.693 517.018 448.067 517.681 443.438 516.838C439.624 516.143 436.448 514.457 434.345 511.133C431.452 506.56 430.837 501.611 432.108 496.408C433.198 497.312 433.39 497.713 433.891 499C434.945 501.707 436.544 504.237 438.828 506.073C439.611 507.442 440.899 508.838 442.101 509.872C444.452 511.896 447.752 512.434 450.75 511.969C452.97 511.625 455.721 509.826 456.926 507.939C459.515 503.888 459.02 500.266 457.987 495.883Z"
       id="path129" />
    <path
       fill="#26136E"
       transform="scale(0.5 0.5)"
       d="M431.502 493.374C432.514 493.162 433.142 493.197 434.151 493.358L443.51 494.635C447.152 494.071 454.922 493.834 457.987 495.883C459.02 500.266 459.515 503.888 456.926 507.939C455.721 509.826 452.97 511.625 450.75 511.969C447.752 512.434 444.452 511.896 442.101 509.872C440.899 508.838 439.611 507.442 438.828 506.073C436.544 504.237 434.945 501.707 433.891 499C433.39 497.713 433.198 497.312 432.108 496.408L432.517 494.055L431.502 493.374Z"
       id="path131" />
    <path
       fill="#A29735"
       transform="scale(0.5 0.5)"
       d="M431.502 493.374C432.514 493.162 433.142 493.197 434.151 493.358L443.51 494.635C440.801 496.538 438.98 497.596 438.09 501C438.402 502.288 438.748 503.439 439.244 504.667L438.828 506.073C436.544 504.237 434.945 501.707 433.891 499C433.39 497.713 433.198 497.312 432.108 496.408L432.517 494.055L431.502 493.374Z"
       id="path133" />
    <path
       fill="#A38BC0"
       transform="scale(0.5 0.5)"
       d="M440.196 377.841C446.967 378.916 453.596 381.258 460.266 382.864C471.124 385.479 482.384 386.947 493.533 387.436L494.086 388.073C494.908 388.974 494.547 388.661 495.644 389.25C483.427 392.247 470.857 394.719 458.965 398.856C435.386 407.058 418.482 424.579 402.25 442.788L393.662 452.46C390.82 455.68 388.661 458.611 384.752 460.583C390.424 434.385 408.008 410.185 425.88 390.667C427.299 390.126 430.301 386.375 431.546 385.186C434.283 382.575 437.246 380.206 440.196 377.841Z"
       id="path135" />
    <path
       fill="#26136E"
       transform="scale(0.5 0.5)"
       d="M359.201 488.867C360.69 485.542 362.577 482.712 363.607 479.147C365.132 473.866 365.194 467.948 365.683 462.48C366.954 448.281 373.037 436.011 382.931 425.798C393.269 415.127 404.723 403.652 416.934 395.142C419.522 393.338 422.654 390.738 425.88 390.667C408.008 410.185 390.424 434.385 384.752 460.583C382.377 473.072 383.531 486.117 385.43 498.616C386.148 503.334 387.405 508.308 387.594 513.068C387.729 516.436 386.714 519.661 386.108 522.941C385.465 526.416 385.117 529.898 384.79 533.415C383.959 543.143 385.604 550.791 388.468 560.018C386.814 558.556 385.61 555.64 384.704 553.64C380.448 544.247 378.395 533.91 375.645 524.008C373.756 518.805 373.168 513.078 370.963 508.002C370.573 502.277 368.352 495.974 367.302 490.24C365.258 489.223 361.53 489.172 359.201 488.867Z"
       id="path137" />
    <path
       fill="#A38BC0"
       transform="scale(0.5 0.5)"
       d="M583.348 378.745C585.978 381.775 589.593 383.957 592.507 386.767L611.387 406.388C615.602 411.031 620.085 415.722 623.494 421L624.606 422.679C629.418 432.502 633.642 442.191 636.327 452.843C639.242 464.406 640.062 476.192 640.374 488.068C640.515 493.424 641.091 499.792 640.035 505C639.635 506.97 639.958 509.068 639.497 511.057C639.217 508.979 639.307 506.786 639.262 504.687C638.738 504.429 637.89 504.083 637.655 503.5C637.234 502.456 637.584 499.038 637.561 497.786C637.388 488.421 638.054 476.727 634.755 467.876L634.514 467.25C632.227 461.064 627.703 455.386 623.947 450C607.164 425.935 585.184 405.334 556.604 396.614L535.655 391.306C532.716 390.611 526.854 389.964 524.513 388.076L523.808 387.452C526.48 386.859 529.584 387.065 532.328 386.906L546.778 385.656C559.096 384.189 571.219 381.29 583.348 378.745Z"
       id="path139" />
    <path
       fill="#A38BC0"
       transform="scale(0.5 0.5)"
       d="M246.712 729.653C236.709 717.498 227.799 703.572 219.968 689.934C194.522 645.622 180.395 598.968 175.288 548.302C166.389 460.023 194.047 368.011 250.181 299.411C304.882 232.562 387.851 187.223 473.835 178.672C469.714 198.911 467.098 219.537 465.201 240.095C464.817 244.26 463.598 250.319 464.477 254.3L486.385 249.673C490.45 245.455 493.631 238.452 496.715 233.389L511.053 210.011L511.749 209.049L528.295 234.481C531.532 239.494 534.57 244.874 538.35 249.481L538.493 249.682L559.115 254.8C578.242 259.233 598.591 269.947 613.769 282.314C619.214 286.651 624.86 290.909 629.926 295.686C635.666 301.1 640.699 307.175 645.87 313.117C651.211 320.475 656.395 327.847 660.686 335.885C664.109 342.297 666.734 348.966 669.643 355.607C675.494 370.472 678.986 384.625 680.639 400.553L681.078 409.903L680.75 421.71L680.074 421.94C679.127 422.322 678.732 422.756 678.065 423.492L677.5 424.933C676.005 423.674 674.791 417.679 673.9 415.564C668.037 401.646 656.519 388.842 643.158 381.804C625.884 372.705 601.628 373.034 583.348 378.745C571.219 381.29 559.096 384.189 546.778 385.656L532.328 386.906C529.584 387.065 526.48 386.859 523.808 387.452L521 387.517C519.588 387.735 519.083 388.183 518.207 389.255C516.158 391.761 513.739 393.982 511.433 396.252C509.25 394.008 505.772 389.657 502.833 388.542C500.087 387.501 496.462 387.579 493.533 387.436C482.384 386.947 471.124 385.479 460.266 382.864C453.596 381.258 446.967 378.916 440.196 377.841C437.246 380.206 434.283 382.575 431.546 385.186C430.301 386.375 427.299 390.126 425.88 390.667C422.654 390.738 419.522 393.338 416.934 395.142C404.723 403.652 393.269 415.127 382.931 425.798C373.037 436.011 366.954 448.281 365.683 462.48C365.194 467.948 365.132 473.866 363.607 479.147C362.577 482.712 360.69 485.542 359.201 488.867C357.513 491.478 355.518 493.931 353.159 495.966C351.206 497.651 348.999 499.116 346.89 500.604C346.559 500.838 344.935 501.79 344.75 502.108C344.558 502.44 344.441 503.653 344.366 504.082L345.316 519.419C344.923 521.234 344.727 521.333 343.598 522.75C342.753 523.812 342.176 525.248 341.398 526.399C339.101 529.796 336.582 533.111 333.911 536.223C322.898 549.053 304.637 559.211 288.228 563.118L281.854 564.755C271.959 577.117 260.11 591.083 254.625 606C252.893 610.71 251.719 615.696 252.265 620.734C252.94 626.964 256.302 632.067 260.438 636.604C272.082 649.378 294.132 659.57 296.666 678.347C297.775 686.565 294.778 692.764 289.785 699.018C278.542 713.1 262.476 721.658 246.712 729.653Z"
       id="path141" />
    <path
       fill="white"
       transform="scale(0.5 0.5)"
       d="M341.696 402.49C326.245 393.679 311.741 382.265 297.001 372.312C282.422 362.467 266.273 353.619 253.147 341.9L308.534 353.308C322.304 356 337.067 357.945 350.382 362.395C345.292 375.238 343.654 388.911 341.696 402.49Z"
       id="path143" />
    <path
       fill="white"
       transform="scale(0.5 0.5)"
       d="M374.737 315.939L350.65 273.503L335.544 247.5C332.719 242.642 327.944 236.452 326.786 230.928L407.945 283.122C395.103 292.751 384.664 303.364 374.737 315.939Z"
       id="path145" />
    <path
       fill="url(#gradient_1)"
       transform="scale(0.5 0.5)"
       d="M330.517 507.606L343.5 503.143L344.366 504.082L345.316 519.419C344.923 521.234 344.727 521.333 343.598 522.75C342.753 523.812 342.176 525.248 341.398 526.399C339.101 529.796 336.582 533.111 333.911 536.223C322.898 549.053 304.637 559.211 288.228 563.118L281.854 564.755C267.612 565.201 254.856 565.525 241.348 560.063C220.865 551.782 206.144 535.324 197.585 515.226C199.855 517.997 202.11 521.006 204.75 523.439C214.504 532.429 227.324 538.145 240.25 540.668L243.064 541.167C277.069 545.954 304.708 526.739 330.517 507.606Z"
       id="path154" />
    <path
       fill="url(#gradient_2)"
       transform="scale(0.5 0.5)"
       d="M342.821 422.959C344.179 422.005 345.052 419.316 345.853 417.768C347.357 414.864 348.951 412.003 350.75 409.27C356.533 400.486 363.603 392.43 372.451 386.638C386.942 377.15 404.516 373.219 421.743 374.64C427.952 375.152 434.107 376.571 440.196 377.841C437.246 380.206 434.283 382.575 431.546 385.186C430.301 386.375 427.299 390.126 425.88 390.667C422.654 390.738 419.522 393.338 416.934 395.142C404.723 403.652 393.269 415.127 382.931 425.798C373.037 436.011 366.954 448.281 365.683 462.48C365.194 467.948 365.132 473.866 363.607 479.147C362.577 482.712 360.69 485.542 359.201 488.867C357.513 491.478 355.518 493.931 353.159 495.966C351.206 497.651 348.999 499.116 346.89 500.604C346.559 500.838 344.935 501.79 344.75 502.108C344.558 502.44 344.441 503.653 344.366 504.082L343.5 503.143L330.517 507.606C326.067 507.392 321.634 507.656 317.187 507.213C302.505 505.753 289.212 499.847 277.582 490.844C255.208 473.523 239.998 443.3 236.336 415.463C245.371 434.857 254.964 453.801 274.022 465.281C285.751 472.346 299.143 475.63 312.672 472.288C322.611 469.832 333.538 463.043 338.801 454.003L339.225 453.25C341.284 449.804 340.388 445.63 340.353 441.75L340.444 426.759C341.755 425.48 342.426 424.772 342.821 422.959Z"
       id="path163" />
    <path
       fill="url(#gradient_3)"
       transform="scale(0.5 0.5)"
       d="M511.053 210.011L511.749 209.049L528.295 234.481C531.532 239.494 534.57 244.874 538.35 249.481L538.493 249.682L559.115 254.8C578.242 259.233 598.591 269.947 613.769 282.314C619.214 286.651 624.86 290.909 629.926 295.686C635.666 301.1 640.699 307.175 645.87 313.117C651.211 320.475 656.395 327.847 660.686 335.885C664.109 342.297 666.734 348.966 669.643 355.607C675.494 370.472 678.986 384.625 680.639 400.553L681.078 409.903L680.75 421.71L680.074 421.94C679.127 422.322 678.732 422.756 678.065 423.492L677.5 424.933C676.005 423.674 674.791 417.679 673.9 415.564C668.037 401.646 656.519 388.842 643.158 381.804C625.884 372.705 601.628 373.034 583.348 378.745C571.219 381.29 559.096 384.189 546.778 385.656L532.328 386.906C529.584 387.065 526.48 386.859 523.808 387.452L521 387.517C519.588 387.735 519.083 388.183 518.207 389.255C516.158 391.761 513.739 393.982 511.433 396.252C509.25 394.008 505.772 389.657 502.833 388.542C500.087 387.501 496.462 387.579 493.533 387.436C482.384 386.947 471.124 385.479 460.266 382.864C453.596 381.258 446.967 378.916 440.196 377.841C434.107 376.571 427.952 375.152 421.743 374.64C404.516 373.219 386.942 377.15 372.451 386.638C363.603 392.43 356.533 400.486 350.75 409.27C348.951 412.003 347.357 414.864 345.853 417.768C345.052 419.316 344.179 422.005 342.821 422.959C342.426 424.772 341.755 425.48 340.444 426.759L341.696 402.49C343.654 388.911 345.292 375.238 350.382 362.395C354.784 350.118 360.009 338.619 366.858 327.502C369.274 323.581 371.714 319.418 374.737 315.939C384.664 303.364 395.103 292.751 407.945 283.122C423.994 269.71 444.498 260.12 464.477 254.3L486.385 249.673C490.45 245.455 493.631 238.452 496.715 233.389L511.053 210.011Z"
       id="path172" />
    <path
       fill="#3C1491"
       transform="scale(0.5 0.5)"
       d="M474.64 289.261C484.175 301.724 496.433 309.492 511.615 313.376C511.49 319.814 510.755 327.259 511.914 333.59C506.649 342.792 499.462 349.709 492.798 357.77C488.997 362.367 486.01 367.474 482.413 372.202L457.215 367.102C461.296 362.923 465.566 358.643 468.712 353.694C477.798 339.402 478.243 322.436 475.949 306.144C475.214 300.922 473.351 294.415 474.64 289.261Z"
       id="path174" />
    <path
       fill="#FFF000"
       transform="scale(0.5 0.5)"
       d="M511.914 333.59C519.271 347.926 533.658 357.737 541.527 372.058L567.862 367.75C576.673 365.892 585.539 363.578 594.5 362.57C617.021 360.038 639.02 364.162 657.301 378.221C666.841 385.557 673.047 396.816 676.418 408.211C677.434 413.281 678.134 418.31 678.065 423.492L677.5 424.933C676.005 423.674 674.791 417.679 673.9 415.564C668.037 401.646 656.519 388.842 643.158 381.804C625.884 372.705 601.628 373.034 583.348 378.745C571.219 381.29 559.096 384.189 546.778 385.656L532.328 386.906C529.584 387.065 526.48 386.859 523.808 387.452L521 387.517C519.588 387.735 519.083 388.183 518.207 389.255C516.158 391.761 513.739 393.982 511.433 396.252C509.25 394.008 505.772 389.657 502.833 388.542C500.087 387.501 496.462 387.579 493.533 387.436C482.384 386.947 471.124 385.479 460.266 382.864C453.596 381.258 446.967 378.916 440.196 377.841C434.107 376.571 427.952 375.152 421.743 374.64C404.516 373.219 386.942 377.15 372.451 386.638C363.603 392.43 356.533 400.486 350.75 409.27C348.951 412.003 347.357 414.864 345.853 417.768C345.052 419.316 344.179 422.005 342.821 422.959C343.297 417.222 343.599 410.961 345.495 405.5C347.18 400.647 350.147 396.041 352.809 391.681C353.547 391.309 354.979 389.078 355.595 388.361C357.697 385.914 360.023 383.565 362.391 381.374C366.177 377.87 370.333 374.838 374.795 372.25C400.825 357.153 429.251 359.824 457.215 367.102L482.413 372.202C486.01 367.474 488.997 362.367 492.798 357.77C499.462 349.709 506.649 342.792 511.914 333.59Z"
       id="path176" />
    <path
       fill="#140E58"
       transform="scale(0.5 0.5)"
       d="M513.183 353.028C516.516 357.346 525.623 367.446 524.921 372.922C524.359 377.304 519.945 381.482 516.428 383.856C515.214 384.675 513.928 385.375 512.437 385.448L512.114 379.511C513.817 377.864 516.552 376.848 517.491 374.504C519.509 369.472 514.353 362.448 512.75 357.777C512.016 355.638 512.334 354.981 513.183 353.028Z"
       id="path178" />
    <path
       fill="#3C1491"
       transform="scale(0.5 0.5)"
       d="M511.026 353.569L512.192 352.25L513.183 353.028C512.334 354.981 512.016 355.638 512.75 357.777C514.353 362.448 519.509 369.472 517.491 374.504C516.552 376.848 513.817 377.864 512.114 379.511L512.437 385.448C511.686 385.367 511.108 385.145 510.433 384.811C505.894 382.565 501.813 379.061 500.307 374.081C499.536 371.531 500.029 369.763 501.177 367.444L504.975 361.672L511.026 353.569Z"
       id="path180" />
    <path
       fill="#8721C6"
       transform="scale(0.5 0.5)"
       d="M511.026 353.569C511.841 357.562 511.612 361.553 511.698 365.61L509.708 364.131L508.461 365.152C505.726 365.329 504.063 367.504 501.177 367.444L504.975 361.672L511.026 353.569Z"
       id="path182" />
    <path
       fill="#CB65E8"
       transform="scale(0.5 0.5)"
       d="M509.708 364.131L511.698 365.61C513.049 369.484 512.831 374.613 511.422 378.426L510.246 378.979C507.228 377.037 505.526 375.148 503.689 372.121C504.412 369.472 506.661 367.161 508.461 365.152L509.708 364.131Z"
       id="path184" />
    <path
       fill="#FFF000"
       transform="scale(0.5 0.5)"
       d="M511.053 210.011L511.749 209.049L528.295 234.481C531.532 239.494 534.57 244.874 538.35 249.481L538.493 249.682C539.842 251.785 541.719 255.514 543.879 256.699L553.629 277.33C554.122 278.466 554.437 278.992 555.521 279.622C552.697 290.097 541.97 299.588 532.86 304.875C526.239 308.718 519.467 311.395 512.074 313.299L511.615 313.376C496.433 309.492 484.175 301.724 474.64 289.261C472.581 286.044 470.562 283.661 470.629 279.688C470.645 278.764 470.699 279.144 470.223 278.25C458.59 282.697 446.961 287.531 435.974 293.423C407.68 308.594 384.227 329.335 366.289 356.032C360.98 363.933 355.883 371.764 351.917 380.44L346.416 394.676C350.073 368.015 361.603 342.887 377.448 321.28C395.355 296.861 418.766 279.318 446.483 267.271C457.943 262.29 470.029 258.183 482.434 256.354L482.961 256.28L486.385 249.673C490.45 245.455 493.631 238.452 496.715 233.389L511.053 210.011Z"
       id="path186" />
    <path
       fill="url(#gradient_4)"
       transform="scale(0.5 0.5)"
       d="M495.559 251.745C500.624 244.663 505.262 236.383 511.509 230.294L512.18 247.045L510.656 249.725L508.121 253.505L506.227 256.159C504.401 256.156 501.81 258.079 499.99 258.776C498.314 258.396 498.295 258.44 497.25 257.089C497.053 255.199 496.736 253.871 495.814 252.193L495.559 251.745Z"
       id="path195" />
    <path
       fill="#3C1491"
       transform="scale(0.5 0.5)"
       d="M510.656 249.725C511.332 251.165 511.659 252.172 511.85 253.75L512.537 254.312C514.116 255.661 514.84 257.691 515.628 259.557C517.96 265.081 520.15 271.21 520.553 277.25C520.676 279.092 520.567 280.148 519.25 281.523C517.755 283.085 512.736 285.372 512.19 287.25C511.903 288.237 512.002 289.97 511.929 291.034L511.522 290.788C507.31 289.218 503.305 286.698 500.402 283.25C498.295 280.746 496.208 277.359 496.565 273.982L504.399 259.092L506.227 256.159L508.121 253.505L510.656 249.725Z"
       id="path197" />
    <path
       fill="#A38BC0"
       transform="scale(0.5 0.5)"
       d="M511.202 283.685C507.43 281.351 504.369 278.884 503.35 274.31C501.827 267.478 505.834 263.124 509.174 257.88C509.741 256.99 510.219 256.219 510.956 255.453L511.202 283.685Z"
       id="path199" />
    <path
       fill="#D8A404"
       transform="scale(0.5 0.5)"
       d="M511.053 210.011L511.749 209.049L528.295 234.481C531.532 239.494 534.57 244.874 538.35 249.481L538.493 249.682C539.842 251.785 541.719 255.514 543.879 256.699L553.629 277.33C554.122 278.466 554.437 278.992 555.521 279.622C552.697 290.097 541.97 299.588 532.86 304.875C526.239 308.718 519.467 311.395 512.074 313.299L512.252 298.544C512.274 296.232 512.667 293.213 511.929 291.034C512.002 289.97 511.903 288.237 512.19 287.25C512.736 285.372 517.755 283.085 519.25 281.523C520.567 280.148 520.676 279.092 520.553 277.25C520.15 271.21 517.96 265.081 515.628 259.557C514.84 257.691 514.116 255.661 512.537 254.312L511.85 253.75C511.659 252.172 511.332 251.165 510.656 249.725L512.18 247.045L511.509 230.294C511.893 227.38 512.133 212.083 511.053 210.011Z"
       id="path201" />
    <path
       fill="#26136E"
       transform="scale(0.5 0.5)"
       d="M512.18 247.045C514.064 247.91 515.62 250.617 516.878 252.306C522.023 259.215 527.053 266.538 531.082 274.148C528.237 281.856 523.609 286.476 516.236 289.918C514.821 290.579 513.51 291.075 511.929 291.034C512.002 289.97 511.903 288.237 512.19 287.25C512.736 285.372 517.755 283.085 519.25 281.523C520.567 280.148 520.676 279.092 520.553 277.25C520.15 271.21 517.96 265.081 515.628 259.557C514.84 257.691 514.116 255.661 512.537 254.312L511.85 253.75C511.659 252.172 511.332 251.165 510.656 249.725L512.18 247.045Z"
       id="path203" />
    <path
       fill="#140E58"
       transform="scale(0.5 0.5)"
       d="M538.493 249.682L559.115 254.8C578.242 259.233 598.591 269.947 613.769 282.314C619.214 286.651 624.86 290.909 629.926 295.686C635.666 301.1 640.699 307.175 645.87 313.117C651.211 320.475 656.395 327.847 660.686 335.885C664.109 342.297 666.734 348.966 669.643 355.607C675.494 370.472 678.986 384.625 680.639 400.553L681.078 409.903L680.75 421.71L680.074 421.94C679.127 422.322 678.732 422.756 678.065 423.492C678.134 418.31 677.434 413.281 676.418 408.211C673.047 396.816 666.841 385.557 657.301 378.221C639.02 364.162 617.021 360.038 594.5 362.57C585.539 363.578 576.673 365.892 567.862 367.75L541.527 372.058C533.658 357.737 519.271 347.926 511.914 333.59C510.755 327.259 511.49 319.814 511.615 313.376L512.074 313.299C519.467 311.395 526.239 308.718 532.86 304.875C541.97 299.588 552.697 290.097 555.521 279.622C554.437 278.992 554.122 278.466 553.629 277.33L543.879 256.699C541.719 255.514 539.842 251.785 538.493 249.682Z"
       id="path205" />
    <path
       fill="#FFF000"
       transform="scale(0.5 0.5)"
       d="M543.879 256.699C551.742 258.838 559.613 260.826 567.245 263.715C604.709 277.898 635.833 303.554 655.743 338.335C664.647 353.888 671.722 371.176 674.925 388.853C675.604 392.605 676.522 396.625 676.491 400.441C675.351 398.235 674.934 395.93 674.151 393.594C672.978 390.096 671.492 386.614 669.937 383.268C652.226 345.138 624.572 313.865 587.473 293.583C577.256 287.997 566.45 283.6 555.521 279.622C554.437 278.992 554.122 278.466 553.629 277.33L543.879 256.699Z"
       id="path207" />
  </g>
</svg>
